<svg xmlns="http://www.w3.org/2000/svg" viewBox="1293 -4473 395.898 76.991">
  <defs>
    <style>
      .cls-1 {
        fill: #004c98;
      }

      .cls-2 {
        fill: #fff;
      }

      .cls-3 {
        fill: #009bdb;
      }
    </style>
  </defs>
  <g id="LOGO_BANCO" data-name="LOGO BANCO" transform="translate(951 -4529)">
    <g id="Group_668" data-name="Group 668" transform="translate(420.712 66.331)">
      <path id="Path_292" data-name="Path 292" class="cls-1" d="M77.652,10.983c8.609,0,12.791,3.69,12.791,10.7,0,4.428-1.476,8.24-5.411,9.593v.246c4.551,1.6,6.764,4.674,6.764,10.331,0,8.855-6.272,12.053-14.021,12.053H64V10.983Zm5.288,11.93c0-4.182-2.091-6.272-5.9-6.272h-5.78V29.308h5.78c4.182.123,5.9-2.583,5.9-6.4Zm1.23,18.079c0-4.182-2.46-6.641-6.641-6.641H71.256V48.125h6.272c4.8,0,6.641-2.706,6.641-7.133Zm13.283,4.182c0-6.4,3.813-9.347,9.47-9.962l7.379-.738v-2.46c0-4.182-3.321-5.165-7.01-5.165a28.786,28.786,0,0,0-7.256,1.107V22.667a31.72,31.72,0,0,1,9.839-1.6c6.641,0,11.315,2.952,11.315,9.593V53.783h-5.657l-.615-2.583h-.246a12.669,12.669,0,0,1-8.24,3.2c-5.78,0-8.978-3.567-8.978-9.224ZM114.3,47.387v-8.24l-5.288.492c-3.075.369-4.551,2.091-4.551,5.165,0,2.952,1.353,4.428,4.3,4.428a14.04,14.04,0,0,0,5.534-1.845ZM136.071,21.56v2.829h.246a13.154,13.154,0,0,1,8.486-3.321c5.534,0,8.24,3.2,8.24,8.363V53.783h-6.887V31.4c0-3.075-1.107-4.551-4.059-4.551a11.423,11.423,0,0,0-5.78,2.091V53.906H129.43V21.56Zm23.737,16.972v-1.6c0-9.224,3.936-15.865,13.283-15.865a21.218,21.218,0,0,1,7.379,1.353v5.657a17.471,17.471,0,0,0-6.764-1.353c-5.78,0-6.887,5.043-6.887,10.7v.492c0,5.657.984,10.7,6.641,10.7a16.634,16.634,0,0,0,7.256-1.845v5.166a14.845,14.845,0,0,1-7.994,2.337c-9.347.123-12.914-6.887-12.914-15.742Zm24.6,0v-1.6c0-9.224,4.059-15.865,13.283-15.865s13.283,6.641,13.283,15.865v1.6c0,9.224-4.059,15.988-13.283,15.988-9.224-.123-13.283-6.764-13.283-15.988Zm19.555-.492v-.615c0-5.411-1.107-10.577-6.272-10.577s-6.4,5.288-6.4,10.577v.615c0,5.411,1.23,10.577,6.4,10.577,5.288,0,6.272-5.165,6.272-10.577ZM255.492,9.876v6.4h-6.887v-6.4Zm0,11.684V53.906h-6.887V21.56Zm38.249,16.972v-1.6c0-8.855,3.444-15.865,12.3-15.865a11.7,11.7,0,0,1,6.518,1.968V8.4h6.887V53.906h-5.78l-.615-2.829H312.8a11.557,11.557,0,0,1-7.994,3.321c-8.609,0-11.069-8.978-11.069-15.865Zm18.817,8.24V27.832a11.858,11.858,0,0,0-4.674-1.107c-5.411,0-7.133,5.288-7.133,10.7v.615c0,5.411,1.23,10.577,6.641,10.577a8.737,8.737,0,0,0,5.165-1.845ZM217.366,33.367V31.276c0-12.176,4.8-20.908,16.48-20.908a23.213,23.213,0,0,1,8.732,1.353v6.026a20.786,20.786,0,0,0-7.871-1.353c-7.5,0-9.47,8.117-9.47,15.619v.738c0,7.5,1.722,15.5,9.224,15.5a18.024,18.024,0,0,0,8.486-2.091v5.657a15.3,15.3,0,0,1-9.347,2.829c-11.807-.246-16.234-9.593-16.234-21.277Zm63.093,20.539V50.954h-.246c-2.583,2.091-5.043,3.321-8.24,3.321-5.534,0-8.24-3.2-8.24-8.363V21.56h6.887V43.944c0,3.075,1.107,4.551,4.059,4.551a11.125,11.125,0,0,0,5.534-2.091V21.56H287.1V53.906Zm44.522-8.732c0-6.4,3.813-9.347,9.47-9.962l7.379-.738v-2.46c0-4.182-3.321-5.165-7.01-5.165a28.786,28.786,0,0,0-7.256,1.107V22.667a31.72,31.72,0,0,1,9.839-1.6c6.641,0,11.315,2.952,11.315,9.593V53.783H343.06l-.615-2.583H342.2a12.669,12.669,0,0,1-8.24,3.2c-5.78,0-8.978-3.567-8.978-9.224Zm16.849,2.214v-8.24l-5.288.492c-3.075.369-4.551,2.091-4.551,5.165,0,2.952,1.353,4.428,4.3,4.428a13.407,13.407,0,0,0,5.534-1.845Zm13.652-8.855v-1.6c0-8.855,3.444-15.865,12.3-15.865a11.7,11.7,0,0,1,6.518,1.968V8.4h6.887V53.906h-5.78l-.615-2.829h-.246A11.557,11.557,0,0,1,366.55,54.4c-8.732,0-11.069-8.978-11.069-15.865Zm18.817,8.24V27.832a11.858,11.858,0,0,0-4.674-1.107c-5.411,0-7.133,5.288-7.133,10.7v.615c0,5.411,1.23,10.577,6.641,10.577a9.051,9.051,0,0,0,5.165-1.845Z" transform="translate(-64 -8.4)"/>
    </g>
    <g id="Group_669" data-name="Group 669" transform="translate(342 56)">
      <path id="Path_293" data-name="Path 293" class="cls-2" d="M0,38.5c0,21.892,8.855,38.5,30.747,38.5S61.494,60.51,61.494,38.5,52.639,0,30.747,0,0,16.48,0,38.5Z"/>
      <path id="Path_294" data-name="Path 294" class="cls-1" d="M52.706,9c5.165,6.887,7.133,16.357,7.133,27.426,0,21.892-8.855,38.372-30.747,38.372C19.253,74.8,12,71.6,7.2,65.82c7.625-8.486,18.694-20.908,24.229-28.041C36.84,31.015,46.187,18.47,52.706,9Z" transform="translate(1.655 2.069)"/>
      <path id="Path_295" data-name="Path 295" class="cls-3" d="M7.133,65.8C2.214,58.788,0,49.441,0,38.5,0,16.48,8.732,0,30.747,0,40.34,0,47.719,3.2,52.516,8.855c-7.994,8.855-19.063,21.4-23.86,27.672C23.122,43.292,13.529,56.329,7.133,65.8Z"/>
    </g>
  </g>
</svg>
