<svg xmlns="http://www.w3.org/2000/svg" width="25" height="25" viewBox="0 0 25 25">
    <g fill="none" fill-rule="evenodd">
        <g>
            <g>
                <path fill="#909394" d="M15.45 11.811c.153-.368.23-.764.23-1.192 0-.427-.077-.821-.23-1.192-.154-.367-.381-.704-.689-1.009-.305-.305-.641-.534-1.007-.683-.367-.157-.764-.23-1.191-.23-.225 0-.439.016-.645.058-.203.044-.396.102-.579.182-.182.086-.362.18-.534.295-.175.112-.331.24-.475.378-.143.144-.268.298-.38.46-.113.164-.21.346-.293.55-.08.182-.14.375-.182.584-.042.203-.06.404-.06.607 0 .285.034.561.107.824.07.266.177.514.32.739.141.24.31.459.504.657.193.19.412.357.657.5.245.146.498.253.764.321.264.07.53.107.796.107.446 0 .85-.073 1.204-.23.358-.15.689-.377.994-.688.308-.326.535-.667.689-1.038zm1.465-2.965c.235.55.352 1.155.352 1.807 0 .425-.054.837-.167 1.234-.112.401-.27.77-.474 1.116-.204.37-.449.691-.733.962-.284.28-.602.525-.947.749-.367.203-.746.357-1.132.459-.386.102-.805.156-1.251.156-.308 0-.613-.034-.918-.096-.306-.06-.6-.151-.887-.274-.284-.123-.556-.266-.809-.428-.255-.164-.485-.347-.688-.55-.204-.203-.386-.433-.55-.688-.162-.25-.306-.525-.428-.809-.144-.302-.245-.613-.305-.918-.063-.305-.091-.61-.091-.913 0-.326.028-.636.09-.936.06-.295.162-.595.306-.897.122-.29.266-.55.428-.798.164-.245.346-.47.55-.673.203-.203.433-.389.688-.566.253-.172.525-.32.809-.443.287-.123.581-.214.887-.274.305-.063.61-.089.918-.089.652 0 1.257.112 1.817.337.561.224 1.064.566 1.513 1.035.449.449.79.947 1.022 1.497zm2.003 7c.978-.613 1.839-1.351 2.582-2.217.743-.866 1.382-1.86 1.912-2.976-.347-.753-.749-1.46-1.208-2.112-.459-.652-.983-1.239-1.575-1.774-.568-.55-1.17-1.022-1.802-1.421-.631-.396-1.294-.728-1.987-.988-.673-.269-1.37-.467-2.095-.6-.722-.133-1.45-.198-2.182-.198-1.164 0-2.277.156-3.349.477-1.07.315-2.102.774-3.1 1.387-1 .61-1.87 1.349-2.614 2.214-.743.866-1.38 1.87-1.91 3.015.53 1.116 1.167 2.11 1.91 2.976.743.866 1.604 1.604 2.582 2.217.978.61 2.003 1.069 3.072 1.374 1.07.305 2.185.46 3.346.46 1.16 0 2.277-.155 3.346-.46 1.07-.305 2.094-.764 3.072-1.374zM25 10.653v.089c0 .039-.01.08-.031.125v.123c-.019 0-.029.007-.029.026v.031c0 .02-.01.031-.031.031-.368.856-.806 1.654-1.315 2.384-.508.733-1.09 1.416-1.742 2.047-.652.61-1.34 1.15-2.063 1.62-.722.47-1.481.855-2.276 1.16-.796.31-1.61.54-2.444.705-.837.161-1.693.247-2.569.247-1.325 0-2.603-.187-3.836-.55-1.231-.37-2.407-.91-3.529-1.62C3.993 16.354 3.007 15.5 2.17 14.5 1.335 13.501.63 12.361.063 11.078v-.062c0-.019-.006-.026-.016-.026s-.016-.01-.016-.034V10.833c0-.02-.005-.036-.015-.047-.01-.008-.016-.02-.016-.044v-.18c0-.044.01-.086.031-.123v-.125l.032-.031v-.091c.386-.832.834-1.625 1.343-2.366.51-.743 1.09-1.424 1.742-2.037.652-.63 1.346-1.181 2.078-1.645.733-.472 1.497-.86 2.293-1.166.813-.326 1.64-.566 2.475-.733C10.83 2.086 11.686 2 12.563 2c1.322 0 2.597.188 3.818.55 1.223.368 2.394.918 3.515 1.651 1.122.733 2.1 1.599 2.934 2.598.835.999 1.528 2.133 2.079 3.393 0 .023.005.039.015.044.01.01.016.026.016.047l.029.031v.125c0 .016.005.037.015.058.01.02.016.044.016.065v.091z" transform="translate(-656 -356) translate(656 357)"/>
                <path stroke="#909394" stroke-linecap="round" stroke-linejoin="round" stroke-width="2" d="M22.292 0L2 22.096" transform="translate(-656 -356) translate(656 357)"/>
            </g>
        </g>
    </g>
</svg>
